<?xml version="1.0" encoding="UTF-8"?>
<svg width="90px" height="90px" viewBox="0 0 90 90" version="1.1" xmlns="http://www.w3.org/2000/svg" xmlns:xlink="http://www.w3.org/1999/xlink">
    <title>noun-user-6194181</title>
    <g id="Page-1" stroke="none" stroke-width="1" fill="none" fill-rule="evenodd">
        <g id="noun-user-6194181" transform="translate(0.084000, 0.000000)" fill="#282828" fill-rule="nonzero">
            <path d="M44.916,0 C20.11,0 0,20.11 0,44.916 C0,69.722 20.11,89.832 44.916,89.832 C69.722,89.832 89.832,69.722 89.832,44.916 C89.832,20.11 69.722,0 44.916,0 Z M44.916,82.241 C24.302,82.241 7.591,65.53 7.591,44.916 C7.591,24.302 24.302,7.591 44.916,7.591 C65.53,7.591 82.241,24.302 82.241,44.916 C82.241,65.53 65.53,82.241 44.916,82.241 Z M44.916,10.313 C25.805,10.313 10.313,25.805 10.313,44.916 C10.313,54.441 14.162,63.067 20.388,69.324 C21.268,61.218 27.09,54.538 34.756,52.383 C37.583,54.519 41.111,55.784 44.915,55.784 C48.72,55.784 52.247,54.519 55.074,52.383 C62.74,54.538 68.562,61.218 69.442,69.324 C75.67,63.067 79.519,54.441 79.519,44.916 C79.519,25.805 64.027,10.313 44.916,10.313 Z M44.916,53.061 C37.169,53.061 30.888,46.858 30.888,39.206 C30.888,31.554 37.168,25.351 44.916,25.351 C52.663,25.351 58.943,31.554 58.943,39.206 C58.944,46.858 52.663,53.061 44.916,53.061 Z" id="Shape"></path>
        </g>
    </g>
</svg>