<?xml version="1.0" encoding="UTF-8"?>
<svg width="459px" height="261px" viewBox="0 0 153 87" version="1.1" xmlns="http://www.w3.org/2000/svg" xmlns:xlink="http://www.w3.org/1999/xlink">
    <title>Logo-with-text</title>
    <g id="Page-1" stroke="none" stroke-width="1" fill="none" fill-rule="evenodd">
        <g id="Logo-with-text" transform="translate(1.000000, 0.000000)">
            <g id="logo" transform="translate(49.000000, 0.000000)">
                <rect id="Rectangle" stroke="#282828" stroke-width="3" fill="#5CB3F8" x="1.5" y="1.5" width="51" height="52" rx="5"></rect>
                <rect id="Rectangle" fill="#DFEBFA" x="5" y="11" width="44" height="39" rx="4"></rect>
                <g id="Group" transform="translate(0.000000, 5.000000)" fill="#282828">
                    <rect id="Rectangle" x="0" y="6" width="54" height="2"></rect>
                    <rect id="Rectangle" x="35" y="1" width="12" height="2"></rect>
                    <circle id="Oval" cx="7" cy="2" r="2"></circle>
                    <circle id="Oval" cx="12" cy="2" r="2"></circle>
                    <circle id="Oval" cx="17" cy="2" r="2"></circle>
                </g>
                <rect id="Rectangle" fill="#B1DBFC" x="7" y="16" width="40" height="24"></rect>
                <rect id="Rectangle" fill="#FF4756" x="7" y="44" width="14" height="2" rx="1"></rect>
                <rect id="Rectangle" fill="#FF4756" x="27" y="44" width="20" height="2" rx="1"></rect>
                <circle id="Oval" fill="#FF4756" cx="21" cy="45" r="3"></circle>
                <ellipse id="Oval" fill="#6E60B8" cx="26.5" cy="33" rx="6.5" ry="5"></ellipse>
                <circle id="Oval" fill="#8479C2" cx="26.5" cy="24.5" r="5.5"></circle>
            </g>
            <text id="Focused" stroke="#282828" stroke-width="0.4" fill-rule="nonzero" font-family="Roboto-Black, Roboto" font-size="19" font-weight="800" fill="#5CB3F8">
                <tspan x="0" y="81">Focused</tspan>
            </text>
            <text id="Learning" stroke="#282828" stroke-width="0.4" font-family="Roboto-Bold, Roboto" font-size="19" font-weight="bold" fill="#282828">
                <tspan x="76" y="81">Learning</tspan>
            </text>
        </g>
    </g>
</svg>