<?xml version="1.0" encoding="UTF-8"?>
<svg width="41px" height="40px" viewBox="0 0 41 40" version="1.1" xmlns="http://www.w3.org/2000/svg" xmlns:xlink="http://www.w3.org/1999/xlink">
    <title>points</title>
    <g id="Page-1" stroke="none" stroke-width="1" fill="none" fill-rule="evenodd">
        <g id="Group" transform="translate(0.971572, -0.001128)" fill="#000000">
            <g transform="translate(15.618628, 5.780231)" id="Shape">
                <path d="M6.50238544,1.58622608 C6.11976107,0.719714403 5.61548526,0 4.41324278,0 C3.42915737,0 2.65031629,0.606218364 2.30507085,1.49379817 C2.29419698,1.52166246 2.28400272,1.54952676 2.27312885,1.57807067 C2.24390532,1.57875029 2.21400217,1.58010952 2.18341941,1.58214838 C1.23331484,1.63583812 0.415735589,2.18972597 0.11194679,3.12487897 C-0.192521626,4.06071157 0.143888789,4.9890684 0.880593617,5.59188868 C0.904380212,5.61023834 0.92748719,5.62926761 0.951273785,5.64761727 C0.943118381,5.67616118 0.934962977,5.70538472 0.92748719,5.73460825 C0.684863921,6.65480966 0.958749572,7.603555 1.75458108,8.18190906 C2.55041259,8.76026313 3.53721647,8.72764151 4.3378053,8.21249183 L4.41324278,8.16287979 C4.437709,8.17987021 4.46285482,8.19618102 4.48868027,8.21249183 C5.2892691,8.72764151 6.27607298,8.76026313 7.07190449,8.18190906 C7.64346238,7.76666308 7.99346514,7.08568684 7.99346514,6.37820554 C7.99346514,6.17228159 7.96424161,6.00101811 7.92618306,5.84198773 C7.91123148,5.78150182 7.85482327,5.7366471 7.88268757,5.65033574 C7.91055187,5.56402438 7.98327088,5.56062629 8.03016446,5.52052889 C8.15453437,5.41382902 8.2795839,5.2928572 8.39987611,5.12635103 C8.81580171,4.5534339 8.93337545,3.79702018 8.71453878,3.12487897 C8.41074998,2.18836674 7.59520958,1.63855659 6.64510501,1.58214838 C6.60772608,1.58010952 6.55743442,1.58146876 6.50238544,1.58622608 Z M6.56423059,3.48711483 C6.71374633,3.50138678 6.85510666,3.5659504 6.90335947,3.71410691 C6.93530147,3.81197175 6.9203499,3.92274932 6.85918437,4.00634222 C6.7524845,4.1538191 6.62539612,4.20750885 6.52549242,4.30809216 C6.348792,4.48615182 6.18704315,4.70430887 6.07082865,5.06178742 C5.95529376,5.41858634 5.95733261,5.69043314 5.99607078,5.93849335 C6.01781852,6.07849445 6.08849869,6.19606819 6.08849869,6.37820554 C6.08849869,6.48150733 6.03548856,6.58005179 5.95189567,6.64121732 C5.81869074,6.73840255 5.65354381,6.69694592 5.51897964,6.61063456 C5.33684229,6.49374044 5.1655788,6.3605355 4.99431532,6.22801019 C4.65178835,5.96431879 4.17469722,5.96431879 3.83217025,6.22801019 C3.66090676,6.3605355 3.48964328,6.49374044 3.30750592,6.61063456 C3.17294176,6.69694592 3.00779483,6.73840255 2.8745899,6.64121732 C2.74070535,6.54403209 2.72847224,6.37412784 2.76924926,6.21917517 C2.82429824,6.01053275 2.89837649,5.80664765 2.97109551,5.60276255 C3.11653355,5.19567197 2.96837704,4.74100819 2.61157812,4.49702569 C2.43283885,4.37469463 2.25341996,4.25304319 2.08623418,4.11644017 C1.96186426,4.01517724 1.87215482,3.87109843 1.9231261,3.71410691 C1.97409737,3.55643576 2.13176851,3.49255176 2.29147851,3.48371674 C2.50759672,3.47148364 2.72439454,3.47895942 2.94051274,3.48507598 C3.37274916,3.49730908 3.75945123,3.21662726 3.88110267,2.80138127 C3.9422682,2.59409809 4.0020745,2.38545567 4.08023045,2.18428904 C4.13867752,2.0347733 4.24809585,1.90428683 4.41324278,1.90428683 C4.61305018,1.90428683 4.65518644,2.07147262 4.7177112,2.2148718 C4.80402256,2.41399958 4.87606196,2.62875856 4.95829562,2.83672136 C5.12616102,3.26012275 5.44014407,3.48303713 5.87441933,3.53944534 C6.04704205,3.5618727 6.46500651,3.5020664 6.56423059,3.48711483 Z"></path>
            </g>
            <g transform="translate(9.485228, 24.081231)" id="Shape">
                <path d="M6.50238544,1.58622608 C6.11976107,0.719714403 5.61548526,0 4.41324278,0 C3.42915737,0 2.65031629,0.606218364 2.30507085,1.49379817 C2.29419698,1.52166246 2.28400272,1.54952676 2.27312885,1.57807067 C2.24390532,1.57875029 2.21400217,1.58010952 2.18341941,1.58214838 C1.23331484,1.63583812 0.415735589,2.18972597 0.11194679,3.12487897 C-0.192521626,4.06071157 0.143888789,4.9890684 0.880593617,5.59188868 C0.904380212,5.61023833 0.92748719,5.62926761 0.951273785,5.64761727 C0.943118381,5.67616118 0.934962977,5.70538471 0.92748719,5.73460825 C0.684863921,6.65480966 0.958749572,7.603555 1.75458108,8.18190906 C2.55041259,8.76026313 3.53721647,8.72764151 4.3378053,8.21249183 L4.41324278,8.16287979 C4.437709,8.17987021 4.46285482,8.19618102 4.48868027,8.21249183 C5.2892691,8.72764151 6.27607298,8.76026313 7.07190449,8.18190906 C7.64346238,7.76666308 7.99346514,7.08568684 7.99346514,6.37820554 C7.99346514,6.17228159 7.96424161,6.00101811 7.92618306,5.84198773 C7.91123148,5.78150182 7.85482327,5.7366471 7.88268757,5.65033574 C7.91055187,5.56402438 7.98327088,5.56062629 8.03016446,5.52052889 C8.15453437,5.41382902 8.2795839,5.2928572 8.39987611,5.12635103 C8.81580171,4.5534339 8.93337545,3.79702018 8.71453878,3.12487897 C8.41074998,2.18836674 7.59520958,1.63855659 6.64510501,1.58214838 C6.60772608,1.58010952 6.55743442,1.58146876 6.50238544,1.58622608 Z M6.56423059,3.48711483 C6.71374633,3.50138678 6.85510666,3.5659504 6.90335947,3.7141069 C6.93530147,3.81197175 6.9203499,3.92274932 6.85918437,4.00634221 C6.7524845,4.1538191 6.62539612,4.20750885 6.52549242,4.30809216 C6.348792,4.48615182 6.18704315,4.70430887 6.07082865,5.06178742 C5.95529376,5.41858634 5.95733261,5.69043314 5.99607078,5.93849335 C6.01781852,6.07849445 6.08849869,6.19606819 6.08849869,6.37820554 C6.08849869,6.48150733 6.03548856,6.58005179 5.95189567,6.64121732 C5.81869074,6.73840255 5.65354381,6.69694592 5.51897964,6.61063456 C5.33684229,6.49374043 5.1655788,6.3605355 4.99431532,6.22801019 C4.65178835,5.96431879 4.17469722,5.96431879 3.83217025,6.22801019 C3.66090676,6.3605355 3.48964328,6.49374043 3.30750592,6.61063456 C3.17294176,6.69694592 3.00779483,6.73840255 2.8745899,6.64121732 C2.74070535,6.54403209 2.72847224,6.37412784 2.76924926,6.21917517 C2.82429824,6.01053275 2.89837649,5.80664765 2.97109551,5.60276255 C3.11653355,5.19567196 2.96837704,4.74100819 2.61157812,4.49702569 C2.43283885,4.37469463 2.25341996,4.25304319 2.08623418,4.11644017 C1.96186426,4.01517724 1.87215482,3.87109843 1.9231261,3.7141069 C1.97409737,3.55643576 2.13176851,3.49255176 2.29147851,3.48371674 C2.50759672,3.47148364 2.72439454,3.47895942 2.94051274,3.48507598 C3.37274916,3.49730908 3.75945123,3.21662726 3.88110267,2.80138127 C3.9422682,2.59409809 4.0020745,2.38545567 4.08023045,2.18428904 C4.13867752,2.0347733 4.24809585,1.90428683 4.41324278,1.90428683 C4.61305018,1.90428683 4.65518644,2.07147262 4.7177112,2.2148718 C4.80402256,2.41399958 4.87606196,2.62875856 4.95829562,2.83672136 C5.12616102,3.26012275 5.44014407,3.48303712 5.87441933,3.53944534 C6.04704205,3.5618727 6.46500651,3.5020664 6.56423059,3.48711483 Z"></path>
            </g>
            <g transform="translate(21.945628, 24.081231)" id="Shape">
                <path d="M6.50238544,1.58622608 C6.11976107,0.719714403 5.61548526,0 4.41324278,0 C3.42915737,0 2.65031629,0.606218364 2.30507085,1.49379817 C2.29419698,1.52166246 2.28400272,1.54952676 2.27312885,1.57807067 C2.24390532,1.57875029 2.21400217,1.58010952 2.18341941,1.58214838 C1.23331484,1.63583812 0.415735589,2.18972597 0.11194679,3.12487897 C-0.192521626,4.06071157 0.143888789,4.9890684 0.880593617,5.59188868 C0.904380212,5.61023833 0.92748719,5.62926761 0.951273785,5.64761727 C0.943118381,5.67616118 0.934962977,5.70538471 0.92748719,5.73460825 C0.684863921,6.65480966 0.958749572,7.603555 1.75458108,8.18190906 C2.55041259,8.76026313 3.53721647,8.72764151 4.3378053,8.21249183 L4.41324278,8.16287979 C4.437709,8.17987021 4.46285482,8.19618102 4.48868027,8.21249183 C5.2892691,8.72764151 6.27607298,8.76026313 7.07190449,8.18190906 C7.64346238,7.76666308 7.99346514,7.08568684 7.99346514,6.37820554 C7.99346514,6.17228159 7.96424161,6.00101811 7.92618306,5.84198773 C7.91123148,5.78150182 7.85482327,5.7366471 7.88268757,5.65033574 C7.91055187,5.56402438 7.98327088,5.56062629 8.03016446,5.52052889 C8.15453437,5.41382902 8.2795839,5.2928572 8.39987611,5.12635103 C8.81580171,4.5534339 8.93337545,3.79702018 8.71453878,3.12487897 C8.41074998,2.18836674 7.59520958,1.63855659 6.64510501,1.58214838 C6.60772608,1.58010952 6.55743442,1.58146876 6.50238544,1.58622608 Z M6.56423059,3.48711483 C6.71374633,3.50138678 6.85510666,3.5659504 6.90335947,3.7141069 C6.93530147,3.81197175 6.9203499,3.92274932 6.85918437,4.00634221 C6.7524845,4.1538191 6.62539612,4.20750885 6.52549242,4.30809216 C6.348792,4.48615182 6.18704315,4.70430887 6.07082865,5.06178742 C5.95529376,5.41858634 5.95733261,5.69043314 5.99607078,5.93849335 C6.01781852,6.07849445 6.08849869,6.19606819 6.08849869,6.37820554 C6.08849869,6.48150733 6.03548856,6.58005179 5.95189567,6.64121732 C5.81869074,6.73840255 5.65354381,6.69694592 5.51897964,6.61063456 C5.33684229,6.49374043 5.1655788,6.3605355 4.99431532,6.22801019 C4.65178835,5.96431879 4.17469722,5.96431879 3.83217025,6.22801019 C3.66090676,6.3605355 3.48964328,6.49374043 3.30750592,6.61063456 C3.17294176,6.69694592 3.00779483,6.73840255 2.8745899,6.64121732 C2.74070535,6.54403209 2.72847224,6.37412784 2.76924926,6.21917517 C2.82429824,6.01053275 2.89837649,5.80664765 2.97109551,5.60276255 C3.11653355,5.19567196 2.96837704,4.74100819 2.61157812,4.49702569 C2.43283885,4.37469463 2.25341996,4.25304319 2.08623418,4.11644017 C1.96186426,4.01517724 1.87215482,3.87109843 1.9231261,3.7141069 C1.97409737,3.55643576 2.13176851,3.49255176 2.29147851,3.48371674 C2.50759672,3.47148364 2.72439454,3.47895942 2.94051274,3.48507598 C3.37274916,3.49730908 3.75945123,3.21662726 3.88110267,2.80138127 C3.9422682,2.59409809 4.0020745,2.38545567 4.08023045,2.18428904 C4.13867752,2.0347733 4.24809585,1.90428683 4.41324278,1.90428683 C4.61305018,1.90428683 4.65518644,2.07147262 4.7177112,2.2148718 C4.80402256,2.41399958 4.87606196,2.62875856 4.95829562,2.83672136 C5.12616102,3.26012275 5.44014407,3.48303712 5.87441933,3.53944534 C6.04704205,3.5618727 6.46500651,3.5020664 6.56423059,3.48711483 Z"></path>
            </g>
            <g transform="translate(25.871428, 13.032231)" id="Shape">
                <path d="M6.50238544,1.58622608 C6.11976107,0.719714403 5.61548526,0 4.41324278,0 C3.42915737,0 2.65031629,0.606218364 2.30507085,1.49379817 C2.29419698,1.52166246 2.28400272,1.54952676 2.27312885,1.57807067 C2.24390532,1.57875029 2.21400217,1.58010952 2.18341941,1.58214838 C1.23331484,1.63583812 0.415735589,2.18972597 0.11194679,3.12487897 C-0.192521626,4.06071157 0.143888789,4.9890684 0.880593617,5.59188868 C0.904380212,5.61023834 0.92748719,5.62926761 0.951273785,5.64761727 C0.943118381,5.67616118 0.934962977,5.70538472 0.92748719,5.73460825 C0.684863921,6.65480966 0.958749572,7.603555 1.75458108,8.18190906 C2.55041259,8.76026313 3.53721647,8.72764151 4.3378053,8.21249183 L4.41324278,8.16287979 C4.437709,8.17987021 4.46285482,8.19618102 4.48868027,8.21249183 C5.2892691,8.72764151 6.27607298,8.76026313 7.07190449,8.18190906 C7.64346238,7.76666308 7.99346514,7.08568684 7.99346514,6.37820554 C7.99346514,6.17228159 7.96424161,6.00101811 7.92618306,5.84198773 C7.91123148,5.78150182 7.85482327,5.7366471 7.88268757,5.65033574 C7.91055187,5.56402438 7.98327088,5.56062629 8.03016446,5.52052889 C8.15453437,5.41382902 8.2795839,5.2928572 8.39987611,5.12635103 C8.81580171,4.5534339 8.93337545,3.79702018 8.71453878,3.12487897 C8.41074998,2.18836674 7.59520958,1.63855659 6.64510501,1.58214838 C6.60772608,1.58010952 6.55743442,1.58146876 6.50238544,1.58622608 Z M6.56423059,3.48711483 C6.71374633,3.50138678 6.85510666,3.5659504 6.90335947,3.71410691 C6.93530147,3.81197175 6.9203499,3.92274932 6.85918437,4.00634222 C6.7524845,4.1538191 6.62539612,4.20750885 6.52549242,4.30809216 C6.348792,4.48615182 6.18704315,4.70430887 6.07082865,5.06178742 C5.95529376,5.41858634 5.95733261,5.69043314 5.99607078,5.93849335 C6.01781852,6.07849445 6.08849869,6.19606819 6.08849869,6.37820554 C6.08849869,6.48150733 6.03548856,6.58005179 5.95189567,6.64121732 C5.81869074,6.73840255 5.65354381,6.69694592 5.51897964,6.61063456 C5.33684229,6.49374044 5.1655788,6.3605355 4.99431532,6.22801019 C4.65178835,5.96431879 4.17469722,5.96431879 3.83217025,6.22801019 C3.66090676,6.3605355 3.48964328,6.49374044 3.30750592,6.61063456 C3.17294176,6.69694592 3.00779483,6.73840255 2.8745899,6.64121732 C2.74070535,6.54403209 2.72847224,6.37412784 2.76924926,6.21917517 C2.82429824,6.01053275 2.89837649,5.80664765 2.97109551,5.60276255 C3.11653355,5.19567197 2.96837704,4.74100819 2.61157812,4.49702569 C2.43283885,4.37469463 2.25341996,4.25304319 2.08623418,4.11644017 C1.96186426,4.01517724 1.87215482,3.87109843 1.9231261,3.71410691 C1.97409737,3.55643576 2.13176851,3.49255176 2.29147851,3.48371674 C2.50759672,3.47148364 2.72439454,3.47895942 2.94051274,3.48507598 C3.37274916,3.49730908 3.75945123,3.21662726 3.88110267,2.80138127 C3.9422682,2.59409809 4.0020745,2.38545567 4.08023045,2.18428904 C4.13867752,2.0347733 4.24809585,1.90428683 4.41324278,1.90428683 C4.61305018,1.90428683 4.65518644,2.07147262 4.7177112,2.2148718 C4.80402256,2.41399958 4.87606196,2.62875856 4.95829562,2.83672136 C5.12616102,3.26012275 5.44014407,3.48303713 5.87441933,3.53944534 C6.04704205,3.5618727 6.46500651,3.5020664 6.56423059,3.48711483 Z"></path>
            </g>
            <g transform="translate(15.587728, 15.696231)" id="Shape">
                <path d="M6.50238544,1.58622608 C6.11976107,0.719714403 5.61548526,0 4.41324278,0 C3.42915737,0 2.65031629,0.606218364 2.30507085,1.49379817 C2.29419698,1.52166246 2.28400272,1.54952676 2.27312885,1.57807067 C2.24390532,1.57875029 2.21400217,1.58010952 2.18341941,1.58214838 C1.23331484,1.63583812 0.415735589,2.18972597 0.11194679,3.12487897 C-0.192521626,4.06071157 0.143888789,4.9890684 0.880593617,5.59188868 C0.904380212,5.61023833 0.92748719,5.62926761 0.951273785,5.64761727 C0.943118381,5.67616118 0.934962977,5.70538471 0.92748719,5.73460825 C0.684863921,6.65480966 0.958749572,7.603555 1.75458108,8.18190906 C2.55041259,8.76026313 3.53721647,8.72764151 4.3378053,8.21249183 L4.41324278,8.16287979 C4.437709,8.17987021 4.46285482,8.19618102 4.48868027,8.21249183 C5.2892691,8.72764151 6.27607298,8.76026313 7.07190449,8.18190906 C7.64346238,7.76666308 7.99346514,7.08568684 7.99346514,6.37820554 C7.99346514,6.17228159 7.96424161,6.00101811 7.92618306,5.84198773 C7.91123148,5.78150182 7.85482327,5.7366471 7.88268757,5.65033574 C7.91055187,5.56402438 7.98327088,5.56062629 8.03016446,5.52052889 C8.15453437,5.41382902 8.2795839,5.2928572 8.39987611,5.12635103 C8.81580171,4.5534339 8.93337545,3.79702018 8.71453878,3.12487897 C8.41074998,2.18836674 7.59520958,1.63855659 6.64510501,1.58214838 C6.60772608,1.58010952 6.55743442,1.58146876 6.50238544,1.58622608 Z M6.56423059,3.48711483 C6.71374633,3.50138678 6.85510666,3.5659504 6.90335947,3.7141069 C6.93530147,3.81197175 6.9203499,3.92274932 6.85918437,4.00634221 C6.7524845,4.1538191 6.62539612,4.20750885 6.52549242,4.30809216 C6.348792,4.48615182 6.18704315,4.70430887 6.07082865,5.06178742 C5.95529376,5.41858634 5.95733261,5.69043314 5.99607078,5.93849335 C6.01781852,6.07849445 6.08849869,6.19606819 6.08849869,6.37820554 C6.08849869,6.48150733 6.03548856,6.58005179 5.95189567,6.64121732 C5.81869074,6.73840255 5.65354381,6.69694592 5.51897964,6.61063456 C5.33684229,6.49374043 5.1655788,6.3605355 4.99431532,6.22801019 C4.65178835,5.96431879 4.17469722,5.96431879 3.83217025,6.22801019 C3.66090676,6.3605355 3.48964328,6.49374043 3.30750592,6.61063456 C3.17294176,6.69694592 3.00779483,6.73840255 2.8745899,6.64121732 C2.74070535,6.54403209 2.72847224,6.37412784 2.76924926,6.21917517 C2.82429824,6.01053275 2.89837649,5.80664765 2.97109551,5.60276255 C3.11653355,5.19567196 2.96837704,4.74100819 2.61157812,4.49702569 C2.43283885,4.37469463 2.25341996,4.25304319 2.08623418,4.11644017 C1.96186426,4.01517724 1.87215482,3.87109843 1.9231261,3.7141069 C1.97409737,3.55643576 2.13176851,3.49255176 2.29147851,3.48371674 C2.50759672,3.47148364 2.72439454,3.47895942 2.94051274,3.48507598 C3.37274916,3.49730908 3.75945123,3.21662726 3.88110267,2.80138127 C3.9422682,2.59409809 4.0020745,2.38545567 4.08023045,2.18428904 C4.13867752,2.0347733 4.24809585,1.90428683 4.41324278,1.90428683 C4.61305018,1.90428683 4.65518644,2.07147262 4.7177112,2.2148718 C4.80402256,2.41399958 4.87606196,2.62875856 4.95829562,2.83672136 C5.12616102,3.26012275 5.44014407,3.48303712 5.87441933,3.53944534 C6.04704205,3.5618727 6.46500651,3.5020664 6.56423059,3.48711483 Z"></path>
            </g>
            <g transform="translate(5.363728, 13.032231)" id="Shape">
                <path d="M6.50238544,1.58622608 C6.11976107,0.719714403 5.61548526,0 4.41324278,0 C3.42915737,0 2.65031629,0.606218364 2.30507085,1.49379817 C2.29419698,1.52166246 2.28400272,1.54952676 2.27312885,1.57807067 C2.24390532,1.57875029 2.21400217,1.58010952 2.18341941,1.58214838 C1.23331484,1.63583812 0.415735589,2.18972597 0.11194679,3.12487897 C-0.192521626,4.06071157 0.143888789,4.9890684 0.880593617,5.59188868 C0.904380212,5.61023834 0.92748719,5.62926761 0.951273785,5.64761727 C0.943118381,5.67616118 0.934962977,5.70538472 0.92748719,5.73460825 C0.684863921,6.65480966 0.958749572,7.603555 1.75458108,8.18190906 C2.55041259,8.76026313 3.53721647,8.72764151 4.3378053,8.21249183 L4.41324278,8.16287979 C4.437709,8.17987021 4.46285482,8.19618102 4.48868027,8.21249183 C5.2892691,8.72764151 6.27607298,8.76026313 7.07190449,8.18190906 C7.64346238,7.76666308 7.99346514,7.08568684 7.99346514,6.37820554 C7.99346514,6.17228159 7.96424161,6.00101811 7.92618306,5.84198773 C7.91123148,5.78150182 7.85482327,5.7366471 7.88268757,5.65033574 C7.91055187,5.56402438 7.98327088,5.56062629 8.03016446,5.52052889 C8.15453437,5.41382902 8.2795839,5.2928572 8.39987611,5.12635103 C8.81580171,4.5534339 8.93337545,3.79702018 8.71453878,3.12487897 C8.41074998,2.18836674 7.59520958,1.63855659 6.64510501,1.58214838 C6.60772608,1.58010952 6.55743442,1.58146876 6.50238544,1.58622608 Z M6.56423059,3.48711483 C6.71374633,3.50138678 6.85510666,3.5659504 6.90335947,3.71410691 C6.93530147,3.81197175 6.9203499,3.92274932 6.85918437,4.00634222 C6.7524845,4.1538191 6.62539612,4.20750885 6.52549242,4.30809216 C6.348792,4.48615182 6.18704315,4.70430887 6.07082865,5.06178742 C5.95529376,5.41858634 5.95733261,5.69043314 5.99607078,5.93849335 C6.01781852,6.07849445 6.08849869,6.19606819 6.08849869,6.37820554 C6.08849869,6.48150733 6.03548856,6.58005179 5.95189567,6.64121732 C5.81869074,6.73840255 5.65354381,6.69694592 5.51897964,6.61063456 C5.33684229,6.49374044 5.1655788,6.3605355 4.99431532,6.22801019 C4.65178835,5.96431879 4.17469722,5.96431879 3.83217025,6.22801019 C3.66090676,6.3605355 3.48964328,6.49374044 3.30750592,6.61063456 C3.17294176,6.69694592 3.00779483,6.73840255 2.8745899,6.64121732 C2.74070535,6.54403209 2.72847224,6.37412784 2.76924926,6.21917517 C2.82429824,6.01053275 2.89837649,5.80664765 2.97109551,5.60276255 C3.11653355,5.19567197 2.96837704,4.74100819 2.61157812,4.49702569 C2.43283885,4.37469463 2.25341996,4.25304319 2.08623418,4.11644017 C1.96186426,4.01517724 1.87215482,3.87109843 1.9231261,3.71410691 C1.97409737,3.55643576 2.13176851,3.49255176 2.29147851,3.48371674 C2.50759672,3.47148364 2.72439454,3.47895942 2.94051274,3.48507598 C3.37274916,3.49730908 3.75945123,3.21662726 3.88110267,2.80138127 C3.9422682,2.59409809 4.0020745,2.38545567 4.08023045,2.18428904 C4.13867752,2.0347733 4.24809585,1.90428683 4.41324278,1.90428683 C4.61305018,1.90428683 4.65518644,2.07147262 4.7177112,2.2148718 C4.80402256,2.41399958 4.87606196,2.62875856 4.95829562,2.83672136 C5.12616102,3.26012275 5.44014407,3.48303713 5.87441933,3.53944534 C6.04704205,3.5618727 6.46500651,3.5020664 6.56423059,3.48711483 Z"></path>
            </g>
            <g transform="translate(19.078800, 0.000000)" id="Path">
                <path d="M0,0.9529284 L0,2.6668284 C0,3.1924244 0.4273324,3.6197568 0.9529284,3.6197568 C1.4785244,3.6197568 1.9058568,3.1924244 1.9058568,2.6668284 L1.9058568,0.9529284 C1.9058568,0.4273324 1.4785244,0 0.9529284,0 C0.4273324,0 0,0.4273324 0,0.9529284 Z"></path>
            </g>
            <g transform="translate(38.192478, 20.031728) rotate(90.000000) translate(-38.192478, -20.031728) translate(37.239550, 18.221850)" id="Path">
                <path d="M0,0.9529284 L0,2.6668284 C0,3.1924244 0.4273324,3.6197568 0.9529284,3.6197568 C1.4785244,3.6197568 1.9058568,3.1924244 1.9058568,2.6668284 L1.9058568,0.9529284 C1.9058568,0.4273324 1.4785244,0 0.9529284,0 C0.4273324,0 0,0.4273324 0,0.9529284 Z"></path>
            </g>
            <g transform="translate(19.970828, 38.192178) rotate(180.000000) translate(-19.970828, -38.192178) translate(19.017900, 36.382300)" id="Path">
                <path d="M0,0.9529284 L0,2.6668284 C0,3.1924244 0.4273324,3.6197568 0.9529284,3.6197568 C1.4785244,3.6197568 1.9058568,3.1924244 1.9058568,2.6668284 L1.9058568,0.9529284 C1.9058568,0.4273324 1.4785244,0 0.9529284,0 C0.4273324,0 0,0.4273324 0,0.9529284 Z"></path>
            </g>
            <g transform="translate(1.809878, 19.970528) rotate(-90.000000) translate(-1.809878, -19.970528) translate(0.856950, 18.160650)" id="Path">
                <path d="M0,0.9529284 L0,2.6668284 C0,3.1924244 0.4273324,3.6197568 0.9529284,3.6197568 C1.4785244,3.6197568 1.9058568,3.1924244 1.9058568,2.6668284 L1.9058568,0.9529284 C1.9058568,0.4273324 1.4785244,0 0.9529284,0 C0.4273324,0 0,0.4273324 0,0.9529284 Z"></path>
            </g>
            <g transform="translate(7.160097, 7.116013) rotate(-45.000000) translate(-7.160097, -7.116013) translate(6.207166, 5.306130)" id="Path">
                <path d="M0,0.952930513 L0,2.66683431 C0,3.19243148 0.427333348,3.61976483 0.952930513,3.61976483 C1.47852768,3.61976483 1.90586103,3.19243148 1.90586103,2.66683431 L1.90586103,0.952930513 C1.90586103,0.427333348 1.47852768,0 0.952930513,0 C0.427333348,0 0,0.427333348 0,0.952930513 Z"></path>
            </g>
            <g transform="translate(19.078800, -0.000000)" id="Path">
                <path d="M0,0.9529284 L0,2.6668284 C0,3.1924244 0.4273324,3.6197568 0.9529284,3.6197568 C1.4785244,3.6197568 1.9058568,3.1924244 1.9058568,2.6668284 L1.9058568,0.9529284 C1.9058568,0.4273324 1.4785244,0 0.9529284,0 C0.4273324,0 0,0.4273324 0,0.9529284 Z"></path>
            </g>
            <g transform="translate(32.885544, 7.160797) rotate(45.000000) translate(-32.885544, -7.160797) translate(31.932613, 5.350914)" id="Path">
                <path d="M0,0.952930513 L0,2.66683431 C0,3.19243148 0.427333348,3.61976483 0.952930513,3.61976483 C1.47852768,3.61976483 1.90586103,3.19243148 1.90586103,2.66683431 L1.90586103,0.952930513 C1.90586103,0.427333348 1.47852768,0 0.952930513,0 C0.427333348,0 0,0.427333348 0,0.952930513 Z"></path>
            </g>
            <g transform="translate(38.192478, 20.031728) rotate(90.000000) translate(-38.192478, -20.031728) translate(37.239550, 18.221850)" id="Path">
                <path d="M0,0.9529284 L0,2.6668284 C0,3.1924244 0.4273324,3.6197568 0.9529284,3.6197568 C1.4785244,3.6197568 1.9058568,3.1924244 1.9058568,2.6668284 L1.9058568,0.9529284 C1.9058568,0.4273324 1.4785244,0 0.9529284,0 C0.4273324,0 0,0.4273324 0,0.9529284 Z"></path>
            </g>
            <g transform="translate(32.841760, 32.886244) rotate(135.000000) translate(-32.841760, -32.886244) translate(31.888829, 31.076361)" id="Path">
                <path d="M0,0.952930513 L0,2.66683431 C0,3.19243148 0.427333348,3.61976483 0.952930513,3.61976483 C1.47852768,3.61976483 1.90586103,3.19243148 1.90586103,2.66683431 L1.90586103,0.952930513 C1.90586103,0.427333348 1.47852768,0 0.952930513,0 C0.427333348,0 0,0.427333348 0,0.952930513 Z"></path>
            </g>
            <g transform="translate(19.970828, 38.192178) rotate(180.000000) translate(-19.970828, -38.192178) translate(19.017900, 36.382300)" id="Path">
                <path d="M0,0.9529284 L0,2.6668284 C0,3.1924244 0.4273324,3.6197568 0.9529284,3.6197568 C1.4785244,3.6197568 1.9058568,3.1924244 1.9058568,2.6668284 L1.9058568,0.9529284 C1.9058568,0.4273324 1.4785244,0 0.9529284,0 C0.4273324,0 0,0.4273324 0,0.9529284 Z"></path>
            </g>
            <g transform="translate(7.116313, 32.841460) rotate(-135.000000) translate(-7.116313, -32.841460) translate(6.163382, 31.031577)" id="Path">
                <path d="M0,0.952930513 L0,2.66683431 C0,3.19243148 0.427333348,3.61976483 0.952930513,3.61976483 C1.47852768,3.61976483 1.90586103,3.19243148 1.90586103,2.66683431 L1.90586103,0.952930513 C1.90586103,0.427333348 1.47852768,0 0.952930513,0 C0.427333348,0 0,0.427333348 0,0.952930513 Z"></path>
            </g>
        </g>
    </g>
</svg>